<svg width="1490" height="582" xmlns="http://www.w3.org/2000/svg" xmlns:xlink="http://www.w3.org/1999/xlink" xml:space="preserve" overflow="hidden"><defs><clipPath id="clip0"><rect x="1695" y="577" width="1490" height="582"/></clipPath><clipPath id="clip1"><rect x="1699" y="688" width="309" height="310"/></clipPath><clipPath id="clip2"><rect x="1699" y="688" width="309" height="310"/></clipPath><clipPath id="clip3"><rect x="1699" y="688" width="309" height="310"/></clipPath></defs><g clip-path="url(#clip0)" transform="translate(-1695 -577)"><text fill="#000000" fill-opacity="1" font-family="Lato,Lato_MSFontService,sans-serif" font-style="normal" font-variant="normal" font-weight="700" font-stretch="normal" font-size="275" text-anchor="start" direction="ltr" writing-mode="lr-tb" unicode-bidi="normal" text-decoration="none" transform="matrix(1 0 0 1 1997.64 933)">P<tspan fill="#000000" fill-opacity="1" font-family="Lato,Lato_MSFontService,sans-serif" font-style="normal" font-variant="normal" font-weight="700" font-stretch="normal" font-size="275" text-anchor="start" direction="ltr" writing-mode="lr-tb" unicode-bidi="normal" text-decoration="none" x="171.875" y="0">y</tspan><tspan fill="#008F00" fill-opacity="1" font-family="Lato,Lato_MSFontService,sans-serif" font-style="normal" font-variant="normal" font-weight="700" font-stretch="normal" font-size="275" text-anchor="start" direction="ltr" writing-mode="lr-tb" unicode-bidi="normal" text-decoration="none" x="318.542" y="0">T</tspan><tspan fill="#000000" fill-opacity="1" font-family="Lato,Lato_MSFontService,sans-serif" font-style="normal" font-variant="normal" font-weight="700" font-stretch="normal" font-size="275" text-anchor="start" direction="ltr" writing-mode="lr-tb" unicode-bidi="normal" text-decoration="none" x="482.396" y="0">rack</tspan></text><g clip-path="url(#clip1)"><g clip-path="url(#clip2)"><g clip-path="url(#clip3)"><path d="M84.653 224.347 177.997 178.319 224.025 84.9749 130.681 131.003ZM154.5 167.375C150.852 167.375 147.794 166.141 145.326 163.673 142.859 161.206 141.625 158.148 141.625 154.5 141.625 150.852 142.859 147.794 145.326 145.326 147.794 142.859 150.852 141.625 154.5 141.625 158.148 141.625 161.206 142.859 163.673 145.326 166.141 147.794 167.375 150.852 167.375 154.5 167.375 158.148 166.141 161.206 163.673 163.673 161.206 166.141 158.148 167.375 154.5 167.375ZM154.5 283.25C136.904 283.25 120.274 279.87 104.609 273.111 88.9449 266.351 75.2652 257.124 63.5702 245.429 51.8754 233.734 42.6484 220.055 35.889 204.39 29.1297 188.726 25.75 172.095 25.75 154.5 25.75 136.904 29.1297 120.274 35.889 104.609 42.6484 88.9449 51.8754 75.2652 63.5702 63.5702 75.2652 51.8754 88.9449 42.6484 104.609 35.889 120.274 29.1297 136.904 25.75 154.5 25.75 172.095 25.75 188.726 29.1297 204.39 35.889 220.055 42.6484 233.734 51.8754 245.429 63.5702 257.124 75.2652 266.351 88.9449 273.111 104.609 279.87 120.274 283.25 136.904 283.25 154.5 283.25 172.095 279.87 188.726 273.111 204.39 266.351 220.055 257.124 233.734 245.429 245.429 233.734 257.124 220.055 266.351 204.39 273.111 188.726 279.87 172.095 283.25 154.5 283.25ZM154.5 154.5C154.5 154.5 154.5 154.5 154.5 154.5 154.5 154.5 154.5 154.5 154.5 154.5 154.5 154.5 154.5 154.5 154.5 154.5 154.5 154.5 154.5 154.5 154.5 154.5 154.5 154.5 154.5 154.5 154.5 154.5 154.5 154.5 154.5 154.5 154.5 154.5 154.5 154.5 154.5 154.5 154.5 154.5 154.5 154.5 154.5 154.5 154.5 154.5ZM154.5 263.937C184.542 263.937 210.292 253.208 231.75 231.75 253.208 210.292 263.937 184.542 263.937 154.5 263.937 124.458 253.208 98.708 231.75 77.2499 210.292 55.7916 184.542 45.0625 154.5 45.0625 124.458 45.0625 98.708 55.7916 77.2499 77.2499 55.7916 98.708 45.0625 124.458 45.0625 154.5 45.0625 184.542 55.7916 210.292 77.2499 231.75 98.708 253.208 124.458 263.937 154.5 263.937Z" fill="#008F00" fill-rule="nonzero" fill-opacity="1" transform="matrix(1 0 0 1 1699 689)"/></g></g></g></g></svg>